<?xml version='1.0' encoding='utf-8'?>
<!DOCTYPE svg PUBLIC '-//W3C//DTD SVG 1.1//EN' 'http://www.w3.org/Graphics/SVG/1.1/DTD/svg11.dtd'>
<svg version="1.1" xmlns="http://www.w3.org/2000/svg" viewBox="0 0 512 512" xmlns:xlink="http://www.w3.org/1999/xlink" enable-background="new 0 0 512 512">
  <g>
    <path d="m496.1,78.7l-43.1-50.4c-7.3-8.6-20.2-9.6-28.8-2.3-8.6,7.3-9.6,20.2-2.2,28.8l29.5,34.5-34.3,27.9-30.2-35.2c-7.3-8.6-20.2-9.6-28.8-2.2-8.6,7.3-9.6,20.2-2.2,28.8l29.5,34.5-174.5,142.7c-46.5-43.9-119.7-43.1-165.2,2.4-46.3,46.3-46.3,121.4 0,167.7 46.3,46.3 121.4,46.3 167.7,0 37.2-37.2 44.5-92.9 22-137.4l258-210.7c5.2-4.1 12.6-16 2.6-29.1zm-312.1,347.8c-30.1,30.1-78.8,30.1-108.9,0-30.1-30.1-30.1-78.8 0-108.9 30.1-30.1 78.8-30.1 108.9,0 30.1,30.1 30.1,78.8 0,108.9z"/>
  </g>
</svg>
