<?xml version="1.0" encoding="iso-8859-1"?>
<!-- Generator: Adobe Illustrator 18.0.0, SVG Export Plug-In . SVG Version: 6.00 Build 0)  -->
<!DOCTYPE svg PUBLIC "-//W3C//DTD SVG 1.1//EN" "http://www.w3.org/Graphics/SVG/1.1/DTD/svg11.dtd">
<svg version="1.1" id="Capa_1" xmlns="http://www.w3.org/2000/svg" xmlns:xlink="http://www.w3.org/1999/xlink" x="0px" y="0px"
	 viewBox="0 0 297 297" style="enable-background:new 0 0 297 297;" xml:space="preserve">
<g>
	<path d="M252.819,87.204c0,2.586,1.042,5.124,2.881,6.953c1.829,1.829,4.356,2.881,6.943,2.881c2.597,0,5.134-1.053,6.963-2.881
		c1.83-1.83,2.882-4.367,2.882-6.953c0-2.596-1.053-5.124-2.882-6.953c-1.829-1.829-4.366-2.881-6.963-2.881
		c-2.586,0-5.114,1.053-6.943,2.881C253.861,82.071,252.819,84.608,252.819,87.204z"/>
	<path d="M213.275,47.659c2.586,0,5.124-1.053,6.952-2.881c1.839-1.83,2.882-4.367,2.882-6.953c0-2.586-1.043-5.124-2.882-6.953
		c-1.829-1.829-4.356-2.881-6.952-2.881c-2.587,0-5.125,1.053-6.953,2.881c-1.83,1.83-2.881,4.367-2.881,6.953
		c0,2.586,1.052,5.124,2.881,6.953C208.15,46.607,210.687,47.659,213.275,47.659z"/>
	<path d="M132.955,36.182c2.587,0,5.124-1.043,6.953-2.882c1.839-1.829,2.881-4.356,2.881-6.952c0-2.586-1.042-5.114-2.881-6.953
		c-1.83-1.83-4.366-2.881-6.953-2.881c-2.586,0-5.124,1.052-6.952,2.881c-1.83,1.839-2.882,4.367-2.882,6.953
		c0,2.596,1.053,5.133,2.882,6.952C127.831,35.139,130.368,36.182,132.955,36.182z"/>
	<path d="M87.057,105.034c2.586,0,5.124-1.053,6.963-2.881c1.83-1.83,2.872-4.367,2.872-6.953c0-2.586-1.042-5.124-2.872-6.953
		c-1.839-1.829-4.377-2.881-6.963-2.881s-5.124,1.053-6.952,2.881c-1.829,1.83-2.882,4.367-2.882,6.953
		c0,2.586,1.053,5.124,2.882,6.953C81.933,103.981,84.471,105.034,87.057,105.034z"/>
	<path d="M201.807,200.105c-2.597,0-5.134,1.053-6.953,2.881c-1.839,1.83-2.881,4.367-2.881,6.953c0,2.596,1.042,5.124,2.881,6.953
		c1.819,1.829,4.356,2.881,6.953,2.881c2.586,0,5.113-1.053,6.952-2.881c1.829-1.83,2.882-4.367,2.882-6.953
		c0-2.586-1.053-5.124-2.882-6.953C206.931,201.157,204.394,200.105,201.807,200.105z"/>
	<path d="M270.649,154.207c-2.586,0-5.124,1.053-6.953,2.881c-1.83,1.829-2.881,4.367-2.881,6.953c0,2.596,1.052,5.124,2.881,6.953
		c1.83,1.829,4.367,2.881,6.953,2.881s5.124-1.053,6.952-2.881c1.83-1.829,2.882-4.367,2.882-6.953c0-2.586-1.053-5.114-2.882-6.953
		C275.773,155.259,273.236,154.207,270.649,154.207z"/>
	<path d="M195.433,132.78l-2.869-19.096c-0.619-4.126-3.775-7.412-7.872-8.198l-20.079-3.852c-3.206-0.618-6.501,0.398-8.807,2.704
		L2.88,257.262C1.036,259.107,0,261.608,0,264.216c0,2.609,1.036,5.11,2.88,6.954l22.95,22.949c1.921,1.92,4.437,2.88,6.954,2.88
		c2.517,0,5.034-0.96,6.954-2.88l152.924-152.925C194.868,138.988,195.897,135.866,195.433,132.78z M32.784,273.258l-9.041-9.041
		l142.284-142.283l8.121,1.559l1.097,7.303L32.784,273.258z"/>
	<path d="M206.323,90.678c1.921,1.92,4.437,2.88,6.954,2.88s5.034-0.96,6.954-2.88l34.423-34.423c3.841-3.841,3.841-10.068,0-13.909
		c-3.842-3.84-10.067-3.84-13.909,0l-34.423,34.423C202.482,80.61,202.482,86.837,206.323,90.678z"/>
	<path d="M137.477,90.678c1.921,1.92,4.437,2.88,6.954,2.88s5.033-0.96,6.954-2.88c3.841-3.841,3.841-10.068,0-13.909
		l-34.423-34.423c-3.842-3.84-10.067-3.84-13.909,0c-3.841,3.841-3.841,10.068,0,13.909L137.477,90.678z"/>
	<path d="M175.203,68.351c5.431,0,9.835-4.403,9.835-9.835V9.835c0-5.431-4.404-9.835-9.835-9.835c-5.431,0-9.834,4.404-9.834,9.835
		v48.682C165.369,63.948,169.772,68.351,175.203,68.351z"/>
	<path d="M220.232,145.615c-3.842-3.84-10.067-3.84-13.909,0c-3.841,3.841-3.841,10.068,0,13.909l34.423,34.423
		c1.921,1.92,4.437,2.88,6.954,2.88c2.517,0,5.034-0.96,6.954-2.88c3.841-3.841,3.841-10.068,0-13.909L220.232,145.615z"/>
	<path d="M287.165,111.962h-48.681c-5.431,0-9.835,4.403-9.835,9.835s4.403,9.834,9.835,9.834h48.681
		c5.431,0,9.835-4.403,9.835-9.834S292.596,111.962,287.165,111.962z"/>
</g>
<g>
</g>
<g>
</g>
<g>
</g>
<g>
</g>
<g>
</g>
<g>
</g>
<g>
</g>
<g>
</g>
<g>
</g>
<g>
</g>
<g>
</g>
<g>
</g>
<g>
</g>
<g>
</g>
<g>
</g>
</svg>
