<?xml version='1.0' encoding='iso-8859-1'?>
<svg version="1.1" xmlns="http://www.w3.org/2000/svg" viewBox="0 0 463 463" xmlns:xlink="http://www.w3.org/1999/xlink" enable-background="new 0 0 463 463">
  <path d="m257.117,97.797c3.697-5.162 5.883-11.477 5.883-18.297 0-14.785-10.241-27.216-24-30.591v-41.409c0-4.142-3.358-7.5-7.5-7.5s-7.5,3.358-7.5,7.5v41.409c-13.759,3.374-24,15.806-24,30.591 0,6.82 2.186,13.135 5.883,18.297-89.098,12.501-157.883,89.214-157.883,181.703 0,101.182 82.318,183.5 183.5,183.5s183.5-82.318 183.5-183.5c0-92.489-68.785-169.202-157.883-181.703zm133.128,238.203h-37.351c3.499-15.697 5.528-32.15 5.994-49h40.937c-0.754,17.114-4.073,33.572-9.58,49zm-33.417,56h-24.466c6.82-12.648 12.405-26.421 16.67-41h35.022c-7.06,15.003-16.266,28.803-27.226,41zm-250.656,0c-10.96-12.197-20.166-25.997-27.226-41h35.022c4.265,14.579 9.85,28.352 16.67,41h-24.466zm-33.417-169h37.351c-3.499,15.697-5.528,32.15-5.994,49h-40.936c0.753-17.114 4.072-33.572 9.579-49zm33.417-56h24.467c-6.821,12.648-12.405,26.421-16.67,41h-35.023c7.06-15.003 16.266-28.803 27.226-41zm226.19,0h24.466c10.96,12.197 20.166,25.997 27.226,41h-35.022c-4.265-14.579-9.849-28.352-16.67-41zm-9.03-15c-0.262-0.391-0.518-0.788-0.782-1.176-6.256-9.175-13.07-17.271-20.331-24.243 14.303,6.641 27.529,15.223 39.327,25.419h-18.214zm-35.332,127.5c0,90.076-24.501,155.381-49,166.737v-39.237h8.5c4.142,0 7.5-3.358 7.5-7.5s-3.358-7.5-7.5-7.5h-8.5v-41h24.5c4.142,0 7.5-3.358 7.5-7.5s-3.358-7.5-7.5-7.5h-24.5v-49h24.5c4.142,0 7.5-3.358 7.5-7.5s-3.358-7.5-7.5-7.5h-24.5v-49h24.497c4.142,0 7.5-3.358 7.5-7.5s-3.358-7.5-7.5-7.5h-24.497v-41h8.499c4.142,0 7.5-3.358 7.5-7.5s-3.358-7.5-7.5-7.5h-8.499v-39.225c10.998,5.118 22.067,21.08 30.707,44.837 11.796,32.442 18.293,75.729 18.293,121.888zm-92.561,127.5h28.561v39.225c-10.107-4.704-20.274-18.57-28.561-39.225zm28.561-294.237v39.237h-28.472c8.362-20.822 18.416-34.576 28.472-39.237zm-28.792,7.236c-5.833,8.541-11.16,19.257-15.83,32.001h-21.351c10.802-13.983 23.393-24.943 37.181-32.001zm28.792,47.001v41h-43.398c2.522-15.182 5.791-28.936 9.59-41h33.808zm0,56v49h-48.938c0.265-17.389 1.442-33.799 3.354-49h45.584zm0,64v49h-45.59c-1.953-15.616-3.09-32.081-3.349-49h48.939zm0,64v41h-33.879c-3.911-12.465-7.108-26.262-9.541-41h43.42zm-83.549-200.176c-0.265,0.388-0.521,0.785-0.782,1.176h-18.214c11.798-10.196 25.024-18.778 39.328-25.42-7.262,6.973-14.076,15.069-20.332,24.244zm-36.339,136.176c0.466,16.85 2.495,33.303 5.994,49h-37.351c-5.508-15.428-8.826-31.886-9.58-49h40.937zm25.444,63.709c3.144-0.893 5.45-3.779 5.45-7.209 0-4.142-3.358-7.5-7.5-7.5h-1.992c-3.677-15.428-5.893-31.886-6.396-49h0.382c4.142,0 7.5-3.358 7.5-7.5s-3.358-7.5-7.5-7.5h-0.382c0.503-17.114 2.719-33.572 6.396-49h1.983c4.142,0 7.5-3.358 7.5-7.5 0-3.427-2.302-6.312-5.442-7.207 4.726-15.116 10.904-29.017 18.269-41.293h26.631c-3.706,12.617-6.743,26.393-9.059,41h-5.896c-4.142,0-7.5,3.358-7.5,7.5s3.358,7.5 7.5,7.5h3.802c-1.893,15.685-2.99,32.143-3.242,49h-8.56c-4.142,0-7.5,3.358-7.5,7.5s3.358,7.5 7.5,7.5h8.561c0.252,16.857 1.349,33.315 3.242,49h-3.801c-4.142,0-7.5,3.358-7.5,7.5s3.358,7.5 7.5,7.5h5.894c2.316,14.607 5.352,28.383 9.059,41h-26.631c-7.365-12.276-13.543-26.175-18.268-41.291zm49.822,56.291c4.67,12.744 9.997,23.46 15.83,32.001-13.788-7.057-26.379-18.018-37.181-32.001h21.351zm88.414,32.001c5.833-8.541 11.16-19.257 15.83-32.001h3.878c4.142,0 7.5-3.358 7.5-7.5 0-3.794-2.82-6.922-6.477-7.422 3.717-12.638 6.761-26.441 9.081-41.078h21.896c4.142,0 7.5-3.358 7.5-7.5s-3.358-7.5-7.5-7.5h-19.803c1.893-15.685 2.99-32.143 3.242-49h16.561c4.142,0 7.5-3.358 7.5-7.5s-3.358-7.5-7.5-7.5h-16.56c-0.252-16.857-1.349-33.315-3.242-49h11.801c4.142,0 7.5-3.358 7.5-7.5s-3.358-7.5-7.5-7.5h-13.895c-2.321-14.637-5.365-28.44-9.081-41.078 3.657-0.5 6.477-3.628 6.477-7.422 0-4.142-3.358-7.5-7.5-7.5h-3.878c-4.67-12.744-9.997-23.46-15.83-32.001 44.28,22.664 76.208,85.601 76.208,159.501s-31.928,136.837-76.208,159.501zm91.096-167.001c-0.466-16.85-2.495-33.303-5.994-49h37.351c5.508,15.428 8.826,31.886 9.58,49h-40.937zm-143.888-192.5c0-6.396 3.666-11.942 9-14.679v14.679c0,4.142 3.358,7.5 7.5,7.5s7.5-3.358 7.5-7.5v-14.679c5.334,2.737 9,8.282 9,14.679 0,9.098-7.402,16.5-16.5,16.5s-16.5-7.402-16.5-16.5zm-93.546,327.5h18.214c0.262,0.391 0.518,0.788 0.782,1.176 6.256,9.176 13.071,17.271 20.331,24.244-14.302-6.642-27.529-15.224-39.327-25.42zm201.096,1.176c0.265-0.388 0.521-0.785 0.782-1.176h18.213c-11.797,10.196-25.023,18.778-39.327,25.419 7.261-6.973 14.076-15.068 20.332-24.243z"/>
</svg>
