<?xml version="1.0" encoding="iso-8859-1"?>
<!-- Generator: Adobe Illustrator 19.0.0, SVG Export Plug-In . SVG Version: 6.00 Build 0)  -->
<svg version="1.1" id="Capa_1" xmlns="http://www.w3.org/2000/svg" xmlns:xlink="http://www.w3.org/1999/xlink" x="0px" y="0px"
	 viewBox="0 0 456.002 456.002" style="enable-background:new 0 0 456.002 456.002;" xml:space="preserve">
<path d="M356.001,128.002c0-35.29-28.71-64-64-64c-32.579,0-59.531,24.475-63.482,56h-32.518v-48
	c0-11.704-7.568-25.071-17.604-31.092l-66.28-39.768c-3.789-2.274-8.702-1.045-10.976,2.744c-2.273,3.789-1.045,8.703,2.744,10.976
	l66.28,39.768c5.147,3.088,9.835,11.369,9.835,17.372v48h-48c-4.418,0-8,3.582-8,8v288c0,22.056,17.944,40,40,40h96
	c22.056,0,40-17.944,40-40V191.484C331.527,187.532,356.001,160.58,356.001,128.002z M252.883,155.806
	c-4.202-5.907-6.999-12.677-8.202-19.805h28.007L252.883,155.806z M284.001,416.002c0,13.234-10.766,24-24,24h-96
	c-13.234,0-24-10.766-24-24v-280h40v72h-24c-4.418,0-8,3.582-8,8s3.582,8,8,8h24v192c0,4.418,3.582,8,8,8s8-3.582,8-8v-192h72
	c4.418,0,8-3.582,8-8s-3.582-8-8-8h-72v-72h32.513c1.593,12.669,6.933,24.624,15.452,34.293c0.75,0.851,1.532,1.692,2.324,2.5
	c0.528,0.539,1.117,0.98,1.74,1.337c1.347,0.911,2.909,1.37,4.472,1.37c2.047,0,4.095-0.781,5.657-2.343l25.843-25.843V416.002z
	 M300.001,175.322v-47.318c0-0.265-0.014-0.529-0.04-0.793c-0.011-0.114-0.033-0.225-0.049-0.338
	c-0.021-0.145-0.038-0.291-0.066-0.435c-0.026-0.132-0.063-0.261-0.095-0.391c-0.031-0.123-0.058-0.246-0.095-0.368
	c-0.039-0.128-0.087-0.252-0.132-0.378c-0.043-0.121-0.083-0.242-0.132-0.361c-0.049-0.118-0.107-0.232-0.161-0.347
	c-0.057-0.121-0.111-0.243-0.174-0.361c-0.061-0.114-0.13-0.222-0.196-0.332c-0.068-0.113-0.132-0.228-0.205-0.338
	c-0.083-0.124-0.175-0.241-0.265-0.361c-0.067-0.089-0.129-0.181-0.201-0.268c-0.335-0.409-0.71-0.784-1.119-1.119
	c-0.084-0.069-0.172-0.128-0.258-0.193c-0.123-0.093-0.243-0.187-0.371-0.273c-0.107-0.072-0.219-0.133-0.328-0.199
	c-0.114-0.068-0.225-0.14-0.343-0.203c-0.113-0.061-0.23-0.112-0.346-0.167c-0.121-0.057-0.24-0.117-0.364-0.169
	c-0.112-0.046-0.226-0.083-0.339-0.124c-0.133-0.048-0.264-0.099-0.4-0.14c-0.113-0.034-0.227-0.059-0.341-0.088
	c-0.139-0.035-0.276-0.074-0.418-0.102c-0.13-0.026-0.261-0.041-0.392-0.06c-0.127-0.019-0.253-0.043-0.382-0.055
	c-0.232-0.023-0.465-0.033-0.698-0.035c-0.03,0-0.059-0.004-0.089-0.004h-47.321c3.821-22.671,23.58-40,47.321-40
	c26.467,0,48,21.533,48,48C340.001,151.743,322.672,171.501,300.001,175.322z"/>
<g>
</g>
<g>
</g>
<g>
</g>
<g>
</g>
<g>
</g>
<g>
</g>
<g>
</g>
<g>
</g>
<g>
</g>
<g>
</g>
<g>
</g>
<g>
</g>
<g>
</g>
<g>
</g>
<g>
</g>
</svg>
